<svg width="1155" height="34" viewBox="0 0 1155 34" fill="none" xmlns="http://www.w3.org/2000/svg">
<defs>
<clipPath id="myClip">
<path transform="scale(0.78)" fill-rule="evenodd" clip-rule="evenodd" d="M31.4249 26C28.421 30.8043 23.0837 34 17 34C7.61116 34 0 26.3888 0 17C0 7.61116 7.61116 0 17 0C23.4966 0 29.1421 3.64423 32.0038 9H1146.5C1151.19 9 1155 12.8056 1155 17.5C1155 22.1944 1151.19 26 1146.5 26H31.4249Z" fill="#EDEDED"/>
</clipPath>
</defs>
<path fill-rule="evenodd" clip-rule="evenodd" d="M31.4249 26C28.421 30.8043 23.0837 34 17 34C7.61116 34 0 26.3888 0 17C0 7.61116 7.61116 0 17 0C23.4966 0 29.1421 3.64423 32.0038 9H1146.5C1151.19 9 1155 12.8056 1155 17.5C1155 22.1944 1151.19 26 1146.5 26H31.4249Z" fill="#EDEDED"/>
</svg>
