<svg width="28" height="29" viewBox="0 0 28 29" fill="none" xmlns="http://www.w3.org/2000/svg">
<path d="M14.0013 28.2375C23.3358 28.2375 28.0002 21.97 28.0002 14.2386C28.0002 6.50726 23.3358 0.239746 14.0013 0.239746C4.66687 0.239746 0.00244141 6.50726 0.00244141 14.2386C0.00244141 21.97 4.66687 28.2375 14.0013 28.2375Z" fill="#FFB02E"/>
<path d="M6.98424 9.43062C7.03233 9.18334 7.14239 8.88025 7.35164 8.65227C7.53098 8.45689 7.84967 8.23975 8.50263 8.23975C9.14435 8.23975 9.47117 8.46139 9.65986 8.66853C9.878 8.90801 9.98309 9.21343 10.0174 9.41084C10.1119 9.95498 10.6296 10.3195 11.1737 10.225C11.7179 10.1305 12.0824 9.6128 11.9879 9.06865C11.9089 8.61372 11.6826 7.91914 11.1384 7.3217C10.5647 6.69193 9.69817 6.23975 8.50263 6.23975C7.31832 6.23975 6.45537 6.67104 5.8782 7.29988C5.33095 7.89611 5.10965 8.59303 5.02101 9.04888C4.9156 9.59101 5.26963 10.1159 5.81176 10.2214C6.35389 10.3268 6.87883 9.97275 6.98424 9.43062Z" fill="#402A32"/>
<path d="M17.9845 9.43062C18.0326 9.18334 18.1426 8.88025 18.3519 8.65227C18.5312 8.45689 18.8499 8.23975 19.5029 8.23975C20.1446 8.23975 20.4714 8.46139 20.6601 8.66853C20.8782 8.90801 20.9833 9.21343 21.0176 9.41084C21.1121 9.95498 21.6298 10.3195 22.174 10.225C22.7181 10.1305 23.0826 9.6128 22.9881 9.06865C22.9091 8.61372 22.6829 7.91914 22.1386 7.3217C21.565 6.69193 20.6984 6.23975 19.5029 6.23975C18.3186 6.23975 17.4556 6.67104 16.8784 7.29988C16.3312 7.89611 16.1099 8.59303 16.0213 9.04888C15.9158 9.59101 16.2699 10.1159 16.812 10.2214C17.3541 10.3268 17.8791 9.97275 17.9845 9.43062Z" fill="#402A32"/>
<path d="M14.0024 23.2397C5.00244 23.2397 5.00244 14.2397 5.00244 14.2397H23.0024C23.0024 14.2397 23.0024 23.2397 14.0024 23.2397Z" fill="#BB1D80"/>
<path d="M6.00244 14.7397V14.2397H22.0024V14.7397C22.0024 15.292 21.5547 15.7397 21.0024 15.7397H7.00244C6.45016 15.7397 6.00244 15.292 6.00244 14.7397Z" fill="white"/>
</svg>
